<?xml version="1.0" encoding="UTF-8"?>
<svg version="1.1" xmlns="http://www.w3.org/2000/svg" width="1024" height="1024">
<path d="M0 0 C337.92 0 675.84 0 1024 0 C1024 337.92 1024 675.84 1024 1024 C686.08 1024 348.16 1024 0 1024 C0 686.08 0 348.16 0 0 Z " fill="#2F373A" transform="translate(0,0)"/>
<path d="M0 0 C337.92 0 675.84 0 1024 0 C1024 337.92 1024 675.84 1024 1024 C686.08 1024 348.16 1024 0 1024 C0 686.08 0 348.16 0 0 Z M221 136 C219.99646484 136.38212646 219.99646484 136.38212646 218.97265625 136.77197266 C183.52966743 150.54672099 155.21466711 177.37311591 138 211 C137.68192383 211.61697754 137.36384766 212.23395508 137.03613281 212.86962891 C117.0411619 252.18053568 116.68422706 296.02752103 116.72389162 339.12435174 C116.726389 344.22203878 116.71730782 349.31970851 116.70985413 354.41738892 C116.69718742 364.3712735 116.69530335 374.325131 116.69765439 384.27902229 C116.69944686 392.38123248 116.69766814 400.48343454 116.69342995 408.58564377 C116.69283476 409.74450855 116.69223957 410.90337334 116.69162634 412.09735524 C116.69041443 414.45259322 116.68920029 416.8078312 116.68798397 419.16306917 C116.67713923 441.1879965 116.67925627 463.21290847 116.68536881 485.23783664 C116.69053452 505.31975489 116.67928615 525.40162457 116.66027059 545.48353322 C116.64082715 566.17839604 116.6326476 586.87323596 116.63639385 607.56810796 C116.63829614 619.15669503 116.635914 630.7452408 116.62167931 642.33382034 C116.60968114 652.20021515 116.60845399 662.06654325 116.62046947 671.93293913 C116.62629978 676.95155702 116.62762311 681.97005341 116.61546707 686.98866272 C116.50240954 737.18454905 119.70997327 788.73772867 150 831 C150.40412109 831.56493164 150.80824219 832.12986328 151.22460938 832.71191406 C166.11037313 853.19426341 184.61419323 868.39629624 207 880 C207.5971582 880.31420898 208.19431641 880.62841797 208.80957031 880.95214844 C247.596477 901.10929295 291.40911333 900.31599856 333.94250882 900.26144934 C339.25062303 900.25686197 344.55872492 900.26393914 349.86683655 900.26940918 C360.22470159 900.27823785 370.58253743 900.27641083 380.94040356 900.2705839 C389.36583671 900.26604269 397.79126176 900.26546505 406.21669579 900.26763153 C407.42186966 900.267938 408.62704354 900.26824446 409.86873784 900.26856022 C412.31796907 900.26919975 414.7672003 900.26984817 417.21643152 900.2705054 C440.10621501 900.27618925 462.9959824 900.26968084 485.88576325 900.25890467 C505.48024669 900.24996522 525.07470643 900.25152823 544.66918945 900.26074219 C567.49223014 900.27146948 590.31525679 900.27564608 613.13829964 900.26951766 C615.57632744 900.26888064 618.01435524 900.2682519 620.45238304 900.26763153 C621.6515673 900.26732298 622.85075157 900.26701443 624.08627475 900.26669653 C632.4935939 900.26497738 640.90090406 900.26786765 649.30822182 900.27259064 C659.56489469 900.27822663 669.82153698 900.27662601 680.0782064 900.26602915 C685.30037959 900.26080968 690.52250199 900.25865141 695.74467468 900.26532745 C732.11603981 900.46350667 732.11603981 900.46350667 768.125 895.8125 C769.20354248 895.59746826 770.28208496 895.38243652 771.39331055 895.16088867 C795.38011296 890.15075202 818.28126129 880.6527075 838 866 C838.93585937 865.30648437 839.87171875 864.61296875 840.8359375 863.8984375 C870.15035078 840.9455098 888.69355494 809.76267743 898 774 C898.28488281 772.94039062 898.56976562 771.88078125 898.86328125 770.7890625 C900.53717489 764.11065607 901.62684675 757.36842193 902.625 750.5625 C902.8098999 749.31194824 902.8098999 749.31194824 902.99853516 748.03613281 C904.8523662 734.73880528 905.14835777 721.50751936 905.14044189 708.1111908 C905.14303136 706.3378617 905.14604612 704.56453319 905.1494453 702.79120547 C905.15745062 697.95334133 905.15930123 693.11549208 905.16004276 688.2776221 C905.16190474 683.04549511 905.16945783 677.81337564 905.17617798 672.58125305 C905.1897168 661.15488054 905.19577935 649.72851156 905.20018864 638.30213237 C905.20295919 631.15419043 905.20719806 624.00624983 905.21169281 616.85830879 C905.22388077 597.03063893 905.2341803 577.20297012 905.2375679 557.37529659 C905.23789725 555.47446499 905.23789725 555.47446499 905.23823325 553.53523276 C905.23845153 552.26513695 905.23866981 550.99504114 905.2388947 549.68645757 C905.23933815 547.11315596 905.23978472 544.53985435 905.24023438 541.96655273 C905.24056652 540.0519204 905.24056652 540.0519204 905.24090537 538.09860862 C905.24484802 517.44558863 905.26228789 496.79260404 905.2855939 476.13959771 C905.30938111 454.88686984 905.32177313 433.63415967 905.32293582 412.38141829 C905.32384857 400.46855811 905.32949905 388.55574404 905.34775543 376.64289665 C905.3632564 366.49291598 905.36821862 356.34299566 905.36001733 346.19300538 C905.35614558 341.02686514 905.35686729 335.86084607 905.37107468 330.69472122 C905.52085685 272.75183507 898.98078963 216.53794058 857 173 C855.94425781 171.84951172 855.94425781 171.84951172 854.8671875 170.67578125 C827.65312589 141.85784909 788.0713999 129.71582767 749.9375 124.375 C749.06383789 124.2517334 748.19017578 124.1284668 747.29003906 124.00146484 C733.89775111 122.20905015 720.60270651 121.85158661 707.11791992 121.85955811 C705.34530352 121.85696863 703.5726877 121.85395387 701.80007267 121.8505547 C696.96413915 121.84254939 692.12822052 121.84069877 687.29228115 121.83995724 C682.06218004 121.83809525 676.83208645 121.83054212 671.60198975 121.82382202 C660.17968219 121.81028293 648.75737817 121.80422053 637.33506393 121.79981136 C630.18912431 121.7970407 623.04318603 121.79280181 615.89724731 121.78830719 C596.07386866 121.77611891 576.25049108 121.76581963 556.42710876 121.7624321 C555.16013926 121.76221253 553.89316976 121.76199297 552.58780724 121.76176675 C551.31796689 121.76154847 550.04812654 121.76133019 548.73980618 121.7611053 C546.16703224 121.76066185 543.59425831 121.76021529 541.02148438 121.75976562 C539.1072455 121.75943348 539.1072455 121.75943348 537.15433514 121.75909463 C516.50845723 121.75515251 495.86261475 121.73771443 475.2167505 121.7144061 C453.96966787 121.69061471 432.72260294 121.67822667 411.47550678 121.67706418 C399.56652711 121.67615164 387.65759357 121.67050639 375.74862671 121.65224457 C365.60123647 121.63673787 355.45390661 121.63178465 345.30650675 121.63998267 C340.14226786 121.64385252 334.97815016 121.64314242 329.8139267 121.62892532 C292.85841357 121.53322733 255.95329239 122.56089019 221 136 Z " fill="#F8F8F8" transform="translate(0,0)"/>
<path d="M0 0 C3.76808912 3.08298201 5.87352076 5.45190789 6.75 10.25 C6.83316178 12.86897019 6.86634452 15.46001753 6.84765625 18.078125 C6.84553383 19.20163361 6.84553383 19.20163361 6.84336853 20.34783936 C6.83778659 22.73193412 6.82523745 25.11593378 6.8125 27.5 C6.80748266 29.11979031 6.80292016 30.73958209 6.79882812 32.359375 C6.78782308 36.32295312 6.77057091 40.28646045 6.75 44.25 C8.025905 44.24723462 9.30181 44.24446924 10.61637878 44.24162006 C40.91252869 44.17662849 71.20865977 44.12716943 101.50486267 44.09680401 C105.23484997 44.09305195 108.96483713 44.08916898 112.69482422 44.08520508 C113.43738881 44.08441815 114.17995341 44.08363122 114.94501996 44.08282044 C126.96414427 44.0697711 138.98322547 44.04611986 151.00232422 44.01854161 C163.33757553 43.99047426 175.67280428 43.97382093 188.0080862 43.96773452 C195.6179216 43.96362083 203.22763515 43.95063409 210.83743304 43.9262506 C216.67535992 43.90849892 222.51322447 43.90663775 228.35117912 43.91067696 C230.74408658 43.90985162 233.13699865 43.90388414 235.52987862 43.89238358 C238.79840871 43.87744502 242.06641866 43.88105176 245.33496094 43.88923645 C246.75327603 43.87612866 246.75327603 43.87612866 248.20024395 43.86275607 C255.33244695 43.91098655 261.01668062 44.93262053 266.625 49.6875 C270.67075297 54.56620211 271.03685008 58.26134099 270.99050903 64.51361084 C270.99307231 65.77442974 270.99307231 65.77442974 270.99568737 67.06071973 C270.99898548 69.88138645 270.98797324 72.70181607 270.97705078 75.52246094 C270.97648674 77.54272964 270.97680309 79.56299875 270.97793579 81.58326721 C270.97851057 87.07256049 270.96673599 92.56176669 270.95278788 98.0510397 C270.94030138 103.78591409 270.93911166 109.52079038 270.93673706 115.25567627 C270.93051617 126.11763952 270.91409711 136.9795626 270.89403808 147.84150815 C270.87169803 160.20653538 270.86069042 172.57156451 270.85064721 184.93660688 C270.82973142 210.37442688 270.7945436 235.81221119 270.75 261.25 C271.5694812 261.64634895 271.5694812 261.64634895 272.40551758 262.05070496 C273.48289185 262.57897636 273.48289185 262.57897636 274.58203125 263.11791992 C275.64901245 263.63801888 275.64901245 263.63801888 276.73754883 264.16862488 C279.44445388 265.62315944 281.52845454 267.44978025 283.75 269.5625 C286.80810147 272.43711538 289.88536218 275.20741718 293.125 277.875 C297.67675972 281.87391441 300.35294224 285.52022793 301.25 291.6875 C300.23119869 298.94645933 296.86066072 303.53850593 291.60546875 308.46875 C289.69095248 310.30668562 287.97510142 312.23415115 286.25 314.25 C283.46760668 317.47956367 280.53980571 320.48322653 277.5 323.46875 C275.66757513 325.33389674 273.95646865 327.26927746 272.25 329.25 C269.49716803 332.4452514 266.60455463 335.4210294 263.59545898 338.37329102 C261.80786677 340.19115334 260.13546498 342.06405199 258.47265625 343.99609375 C254.96921469 348.02500529 251.35302348 351.93124213 247.6875 355.8125 C246.36835123 357.21471361 245.0493442 358.61706057 243.73046875 360.01953125 C243.06837402 360.72287598 242.4062793 361.4262207 241.72412109 362.15087891 C238.64258042 365.42754063 235.5698536 368.71239009 232.5 372 C231.91847168 372.62277832 231.33694336 373.24555664 230.73779297 373.88720703 C227.24237311 377.63576055 223.76960027 381.40358376 220.3125 385.1875 C215.95675 389.95501957 211.549074 394.67086592 207.125 399.375 C203.14400784 403.60850306 199.1786366 407.84826064 195.3125 412.1875 C190.56385089 417.51065486 185.65549657 422.68028446 180.75854492 427.86645508 C175.96666852 432.94538433 171.22965227 438.06809886 166.5234375 443.2265625 C163.29256301 446.75952022 160.02056248 450.2538207 156.75 453.75 C152.48064443 458.31579035 148.22359411 462.89182338 144 467.5 C143.12472656 468.45261719 142.24945312 469.40523437 141.34765625 470.38671875 C139.56303574 472.35382677 137.80140787 474.32896362 136.05859375 476.33203125 C135.19363281 477.31558594 134.32867188 478.29914063 133.4375 479.3125 C132.67824219 480.19035156 131.91898438 481.06820313 131.13671875 481.97265625 C127.17837783 485.7496002 123.24166887 487.67869925 117.75 487.6875 C116.5434375 487.71650391 116.5434375 487.71650391 115.3125 487.74609375 C109.24784556 486.57199144 104.87265743 481.6515576 100.6953125 477.390625 C100.14890106 476.84138367 99.60248962 476.29214233 99.03952026 475.72625732 C97.31321695 473.98885208 95.59403982 472.24458921 93.875 470.5 C92.69838261 469.3133399 91.52130361 468.12713732 90.34375 466.94140625 C87.47380355 464.04953212 84.61022237 461.15149084 81.75 458.25 C81.42 458.58 81.09 458.91 80.75 459.25 C78.48008113 459.34439978 76.20718033 459.36742226 73.93530273 459.36352539 C72.86706772 459.36374443 72.86706772 459.36374443 71.7772522 459.3639679 C69.41266888 459.3632687 67.04816339 459.35547606 64.68359375 459.34765625 C63.04834537 459.34579209 61.41309643 459.34436818 59.77784729 459.34336853 C55.46565215 459.33954318 51.15349048 459.32971275 46.84130859 459.31866455 C42.44434054 459.3084508 38.04736711 459.30387099 33.65039062 459.29882812 C25.01691169 459.28809049 16.38346 459.27101387 7.75 459.25 C7.73541748 460.38953125 7.72083496 461.5290625 7.70581055 462.703125 C7.6475218 466.96010587 7.57029238 471.2165746 7.48754883 475.47314453 C7.45444262 477.30997358 7.42636683 479.14690086 7.40356445 480.98388672 C7.36975369 483.63551411 7.31742707 486.28625283 7.26171875 488.9375 C7.25532883 489.74928711 7.2489389 490.56107422 7.24235535 491.39746094 C7.07563846 497.96876134 6.14681931 503.9700987 1.1875 508.6875 C-5.48116522 512.9622854 -12.34121127 511.03373995 -19.6953125 509.52734375 C-21.06009735 509.25640648 -21.06009735 509.25640648 -22.45245361 508.97999573 C-24.40790293 508.5911047 -26.36276305 508.19924135 -28.31707764 507.8046875 C-32.47958892 506.96455828 -36.64501504 506.13934325 -40.81033325 505.31326294 C-42.93049297 504.89266379 -45.05050812 504.47133523 -47.17037964 504.04928589 C-56.31222857 502.23041653 -65.46476736 500.47357414 -74.625 498.75 C-76.09896054 498.47193551 -77.57291885 498.19385923 -79.046875 497.91577148 C-86.67528426 496.47833333 -94.30582066 495.05238641 -101.93711853 493.63037109 C-107.08328641 492.67135763 -112.22920242 491.71099826 -117.375 490.75 C-118.9208931 490.46141113 -118.9208931 490.46141113 -120.49801636 490.16699219 C-133.92931154 487.65688863 -147.33787316 485.05898004 -160.72729492 482.33502197 C-174.24483508 479.59090503 -187.80553607 477.09790814 -201.375 474.625 C-216.84824763 471.80455955 -232.30916851 468.9700436 -247.70800781 465.76318359 C-250.39108293 465.22151783 -253.08019288 464.7267107 -255.7734375 464.23828125 C-256.65725098 464.07110596 -257.54106445 463.90393066 -258.45166016 463.73168945 C-260.07613382 463.42463 -261.70330742 463.13131043 -263.33349609 462.85620117 C-268.41115367 461.86775818 -271.01873372 460.27113137 -274.25 456.25 C-276.5021942 452.71802683 -276.50237227 449.76464072 -276.50726891 445.62132454 C-276.51252802 444.61926899 -276.51252802 444.61926899 -276.51789337 443.5969699 C-276.52723045 441.34842869 -276.5222782 439.10014517 -276.51742554 436.85159302 C-276.52116064 435.22724346 -276.52576159 433.60289569 -276.53115618 431.97855079 C-276.5434189 427.50693126 -276.54312188 423.03538636 -276.54076743 418.56375384 C-276.54036009 413.74429333 -276.55139045 408.92485702 -276.56088257 404.10540771 C-276.57751125 394.6603644 -276.58299295 385.21534604 -276.58410732 375.77028932 C-276.58505687 368.09499308 -276.5891625 360.4197051 -276.59550858 352.74441147 C-276.61312574 330.99544766 -276.62234665 309.24650361 -276.62084763 287.49753262 C-276.62076772 286.32449432 -276.6206878 285.15145601 -276.62060547 283.94287109 C-276.62048283 282.18117157 -276.62048283 282.18117157 -276.62035771 280.38388215 C-276.61954457 261.34423545 -276.63868789 242.30466781 -276.6668822 223.26504399 C-276.69558693 203.72696833 -276.70942384 184.18893126 -276.70769465 164.65083396 C-276.70702993 153.67695966 -276.7125579 142.70316825 -276.73405075 131.7293129 C-276.75223081 122.38685768 -276.75663604 113.04452294 -276.7430319 103.70205773 C-276.7364863 98.93372484 -276.73644232 94.16562328 -276.7537384 89.39731216 C-276.76940395 85.03371841 -276.76667263 80.67054067 -276.74917014 76.30695747 C-276.74608581 74.72689816 -276.74978626 73.1468083 -276.76089029 71.56678499 C-276.774975 69.4208036 -276.7644561 67.27628884 -276.74777794 65.13035774 C-276.74821267 63.93792587 -276.74864741 62.74549401 -276.74909532 61.51692784 C-276.02790898 56.79625902 -273.79036122 53.70155903 -270.3527832 50.4621582 C-267.7823871 48.98044258 -265.5166 48.4322356 -262.60546875 47.85546875 C-260.90293945 47.51044312 -260.90293945 47.51044312 -259.16601562 47.15844727 C-257.93560547 46.92053467 -256.70519531 46.68262207 -255.4375 46.4375 C-254.14650391 46.17960693 -252.85550781 45.92171387 -251.52539062 45.65600586 C-248.10972842 44.97460204 -244.69156828 44.30674949 -241.2723999 43.64318848 C-238.0933423 43.02512633 -234.91599708 42.39835621 -231.73828125 41.7734375 C-220.80408889 39.63441912 -209.85997341 37.54944664 -198.91015625 35.4921875 C-177.94777837 31.55912925 -177.94777837 31.55912925 -157.04931641 27.30224609 C-125.01652303 20.52972209 -92.850891 14.34242034 -60.68359375 8.24609375 C-58.814044 7.89136913 -56.94449649 7.53663275 -55.07495117 7.18188477 C-51.47531342 6.49892066 -47.87517101 5.8187149 -44.2746582 5.14038086 C-42.58407776 4.82051618 -40.89356576 4.50028957 -39.203125 4.1796875 C-38.38039597 4.0240181 -37.55766693 3.86834869 -36.71000671 3.70796204 C-32.4631516 2.89578791 -28.23027177 2.04037836 -24.00585938 1.11816406 C-23.15256042 0.9326297 -22.29926147 0.74709534 -21.42010498 0.55593872 C-19.80862975 0.20237166 -18.19851005 -0.15745962 -16.59014893 -0.52493286 C-10.7478311 -1.80921117 -5.47808238 -2.94973667 0 0 Z " fill="#2B804E" transform="translate(508.25,245.75)"/>
<path d="M0 0 C31.58494231 -0.06845677 63.16986349 -0.12153882 94.75486267 -0.15319599 C98.48484997 -0.15694805 102.21483713 -0.16083102 105.94482422 -0.16479492 C107.05867111 -0.16597532 107.05867111 -0.16597532 108.19501996 -0.16717956 C120.21414427 -0.1802289 132.23322547 -0.20388014 144.25232422 -0.23145839 C156.58757553 -0.25952574 168.92280428 -0.27617907 181.2580862 -0.28226548 C188.8679216 -0.28637917 196.47763515 -0.29936591 204.08743304 -0.3237494 C209.92535992 -0.34150108 215.76322447 -0.34336225 221.60117912 -0.33932304 C223.99408658 -0.34014838 226.38699865 -0.34611586 228.77987862 -0.35761642 C232.04840871 -0.37255498 235.31641866 -0.36894824 238.58496094 -0.36076355 C240.00327603 -0.37387134 240.00327603 -0.37387134 241.45024395 -0.38724393 C248.58244695 -0.33901345 254.26668062 0.68262053 259.875 5.4375 C263.92075297 10.31620211 264.28685008 14.01134099 264.24050903 20.26361084 C264.24307231 21.52442974 264.24307231 21.52442974 264.24568737 22.81071973 C264.24898548 25.63138645 264.23797324 28.45181607 264.22705078 31.27246094 C264.22648674 33.29272964 264.22680309 35.31299875 264.22793579 37.33326721 C264.22851057 42.82256049 264.21673599 48.31176669 264.20278788 53.8010397 C264.19030138 59.53591409 264.18911166 65.27079038 264.18673706 71.00567627 C264.18051617 81.86763952 264.16409711 92.7295626 264.14403808 103.59150815 C264.12169803 115.95653538 264.11069042 128.32156451 264.10064721 140.68660688 C264.07973142 166.12442688 264.0445436 191.56221119 264 217 C264.8194812 217.39634895 264.8194812 217.39634895 265.65551758 217.80070496 C266.37376709 218.15288589 267.0920166 218.50506683 267.83203125 218.86791992 C268.89901245 219.38801888 268.89901245 219.38801888 269.98754883 219.91862488 C272.69445388 221.37315944 274.77845454 223.19978025 277 225.3125 C280.05810147 228.18711538 283.13536218 230.95741718 286.375 233.625 C290.92675972 237.62391441 293.60294224 241.27022793 294.5 247.4375 C293.48119869 254.69645933 290.11066072 259.28850593 284.85546875 264.21875 C282.94095248 266.05668562 281.22510142 267.98415115 279.5 270 C276.71760668 273.22956367 273.78980571 276.23322653 270.75 279.21875 C268.91757513 281.08389674 267.20646865 283.01927746 265.5 285 C262.74716803 288.1952514 259.85455463 291.1710294 256.84545898 294.12329102 C255.05786677 295.94115334 253.38546498 297.81405199 251.72265625 299.74609375 C248.21921469 303.77500529 244.60302348 307.68124213 240.9375 311.5625 C239.61835123 312.96471361 238.2993442 314.36706057 236.98046875 315.76953125 C236.31837402 316.47287598 235.6562793 317.1762207 234.97412109 317.90087891 C231.89258042 321.17754063 228.8198536 324.46239009 225.75 327.75 C225.16847168 328.37277832 224.58694336 328.99555664 223.98779297 329.63720703 C220.49237311 333.38576055 217.01960027 337.15358376 213.5625 340.9375 C209.20675 345.70501957 204.799074 350.42086592 200.375 355.125 C196.39400784 359.35850306 192.4286366 363.59826064 188.5625 367.9375 C183.81385089 373.26065486 178.90549657 378.43028446 174.00854492 383.61645508 C169.21666852 388.69538433 164.47965227 393.81809886 159.7734375 398.9765625 C156.54256301 402.50952022 153.27056248 406.0038207 150 409.5 C145.73064443 414.06579035 141.47359411 418.64182338 137.25 423.25 C136.37472656 424.20261719 135.49945312 425.15523437 134.59765625 426.13671875 C132.81303574 428.10382677 131.05140787 430.07896362 129.30859375 432.08203125 C128.44363281 433.06558594 127.57867188 434.04914063 126.6875 435.0625 C125.92824219 435.94035156 125.16898438 436.81820313 124.38671875 437.72265625 C120.42837783 441.4996002 116.49166887 443.42869925 111 443.4375 C109.7934375 443.46650391 109.7934375 443.46650391 108.5625 443.49609375 C102.49784556 442.32199144 98.12265743 437.4015576 93.9453125 433.140625 C93.39890106 432.59138367 92.85248962 432.04214233 92.28952026 431.47625732 C90.56321695 429.73885208 88.84403982 427.99458921 87.125 426.25 C85.94838261 425.0633399 84.77130361 423.87713732 83.59375 422.69140625 C80.72380355 419.79953212 77.86022237 416.90149084 75 414 C74.67 414.33 74.34 414.66 74 415 C71.73008113 415.09439978 69.45718033 415.11742226 67.18530273 415.11352539 C66.11706772 415.11374443 66.11706772 415.11374443 65.0272522 415.1139679 C62.66266888 415.1132687 60.29816339 415.10547606 57.93359375 415.09765625 C56.29834537 415.09579209 54.66309643 415.09436818 53.02784729 415.09336853 C48.71565215 415.08954318 44.40349048 415.07971275 40.09130859 415.06866455 C34.9218032 415.05665627 29.75228664 415.05204827 24.5827713 415.04621124 C16.72182423 415.036501 8.86095065 415.01734458 1 415 C1 397.84 1 380.68 1 363 C0.34 363 -0.32 363 -1 363 C-1.93447873 361.6501974 -2.85704474 360.29097347 -3.7265625 358.8984375 C-5.20200423 356.69885258 -6.86927959 354.72365112 -8.5625 352.6875 C-15.15831407 344.16672732 -16.04418831 335.63615068 -15 325 C-13.36433586 317.3669007 -8.96239278 312.05323162 -3.92578125 306.25 C-1.11531683 302.96637423 -0.87362879 301.27712811 -0.8613348 297.03745842 C-0.85586036 295.98149086 -0.85038591 294.9255233 -0.84474558 293.83755672 C-0.84376747 292.66831602 -0.84278936 291.49907531 -0.84178162 290.29440308 C-0.83684364 289.05946141 -0.83190566 287.82451975 -0.82681805 286.55215561 C-0.81407366 283.11339018 -0.8058086 279.67466554 -0.79939139 276.23588586 C-0.79140263 272.53171639 -0.77769963 268.82756766 -0.76467896 265.12341309 C-0.74289453 258.70207237 -0.72475725 252.28072958 -0.70907402 245.85937119 C-0.68639327 236.57508391 -0.65824798 227.29081959 -0.62875474 218.00655176 C-0.58105679 202.94464488 -0.53779859 187.88272864 -0.49731445 172.82080078 C-0.45797073 158.18667878 -0.41654721 143.55256511 -0.37231445 128.91845703 C-0.36959018 128.01690981 -0.36686591 127.1153626 -0.36405908 126.18649577 C-0.35037979 121.66384741 -0.33665948 117.14119918 -0.32291877 112.61855102 C-0.20891938 75.0790513 -0.1021177 37.53953382 0 0 Z " fill="#236E43" transform="translate(515,290)"/>
<path d="M0 0 C27.40734309 -0.06942062 54.81466504 -0.12297041 82.22207832 -0.15543652 C94.94756181 -0.17091117 107.6729897 -0.19201219 120.3984375 -0.22631836 C131.4887972 -0.25620231 142.57911664 -0.27557065 153.66951549 -0.28226548 C159.542821 -0.28617942 165.41601131 -0.29539031 171.28927994 -0.31719017 C176.81644602 -0.33753935 182.34344935 -0.34383692 187.87064934 -0.33932304 C189.89996029 -0.34014894 191.92927664 -0.34612385 193.95855522 -0.35761642 C196.72860274 -0.37253586 199.49803526 -0.36895551 202.26809692 -0.36076355 C203.07160997 -0.36950207 203.87512301 -0.3782406 204.70298493 -0.38724393 C210.79959496 -0.33849061 214.85187061 0.89466701 219.33442211 5.28791428 C221.33927963 8.55245417 221.55124536 10.57765707 221.64924622 14.39337158 C221.69087387 15.68513809 221.73250153 16.9769046 221.77539062 18.30781555 C221.80110476 19.73286951 221.82623147 21.15793416 221.85083008 22.58300781 C221.89065329 24.08999646 221.9318414 25.59694957 221.97428894 27.10386658 C222.10483154 32.05316514 222.19109479 37.0027603 222.26953125 41.953125 C222.28336908 42.79910846 222.29720691 43.64509192 222.31146407 44.51671124 C222.44037761 52.51957948 222.55178677 60.52253222 222.62382984 68.52612686 C222.71667189 78.70757113 222.89222123 88.87980651 223.18461686 99.05752873 C223.38387551 106.24259963 223.48409659 113.42522546 223.51489371 120.61296535 C223.53580273 124.89109653 223.59679008 129.1587469 223.76551247 133.433815 C224.35800803 149.15486321 224.71147385 162.48460427 213.63287634 174.65395999 C208.20721346 180.26394688 202.32260669 185.42266682 196 190 C195.67 190 195.34 190 195 190 C195 185.71 195 181.42 195 177 C164.97 177 134.94 177 104 177 C104 195.48 104 213.96 104 233 C120.5 233 137 233 154 233 C152.02 235.31 150.04 237.62 148 240 C147.28924316 241.01167236 146.57848633 242.02334473 145.84619141 243.06567383 C142.53612724 247.48328653 139.64983228 251.0340268 134.01074219 251.88037109 C129.44897676 252.21278803 124.93312896 251.96425372 120.375 251.6875 C118.78272256 251.63221934 117.19025914 251.58204738 115.59765625 251.53710938 C111.72711222 251.41689257 107.86564388 251.22778436 104 251 C104.08902588 252.0923999 104.17805176 253.1847998 104.26977539 254.31030273 C106.74667663 287.51919498 106.74667663 287.51919498 100.25 296.375 C96.35444463 300.55402008 91.99035073 304.1929732 87 307 C86.67 307 86.34 307 86 307 C86 288.52 86 270.04 86 251 C57.62 251 29.24 251 0 251 C0 245.06 0 239.12 0 233 C28.38 233 56.76 233 86 233 C86 214.52 86 196.04 86 177 C57.62 177 29.24 177 0 177 C0 171.06 0 165.12 0 159 C28.38 159 56.76 159 86 159 C86 140.19 86 121.38 86 102 C57.62 102 29.24 102 0 102 C0 96.06 0 90.12 0 84 C28.38 84 56.76 84 86 84 C86 65.19 86 46.38 86 27 C57.62 27 29.24 27 0 27 C0 18.09 0 9.18 0 0 Z " fill="#F8F8F8" transform="translate(537,311)"/>
<path d="M0 0 C5.46161264 3.32624529 10.12260507 7.7813163 14.828125 12.078125 C15.48312988 12.67133545 16.13813477 13.2645459 16.81298828 13.87573242 C21.41200108 18.18782886 24.55320943 21.99306205 25.390625 28.453125 C24.50882607 35.75945897 21.07303797 40.35795079 15.80859375 45.296875 C13.89407748 47.13481062 12.17822642 49.06227615 10.453125 51.078125 C7.67073168 54.30768867 4.74293071 57.31135153 1.703125 60.296875 C-0.12929987 62.16202174 -1.84040635 64.09740246 -3.546875 66.078125 C-6.29970697 69.2733764 -9.19232037 72.2491544 -12.20141602 75.20141602 C-13.98900823 77.01927834 -15.66141002 78.89217699 -17.32421875 80.82421875 C-20.82766031 84.85313029 -24.44385152 88.75936713 -28.109375 92.640625 C-29.42852377 94.04283861 -30.7475308 95.44518557 -32.06640625 96.84765625 C-32.72850098 97.55100098 -33.3905957 98.2543457 -34.07275391 98.97900391 C-37.15429458 102.25566563 -40.2270214 105.54051509 -43.296875 108.828125 C-43.87840332 109.45090332 -44.45993164 110.07368164 -45.05908203 110.71533203 C-48.55450189 114.46388555 -52.02727473 118.23170876 -55.484375 122.015625 C-59.840125 126.78314457 -64.247801 131.49899092 -68.671875 136.203125 C-72.65286716 140.43662806 -76.6182384 144.67638564 -80.484375 149.015625 C-85.23302411 154.33877986 -90.14137843 159.50840946 -95.03833008 164.69458008 C-99.83020648 169.77350933 -104.56722273 174.89622386 -109.2734375 180.0546875 C-112.50431199 183.58764522 -115.77631252 187.0819457 -119.046875 190.578125 C-123.31623057 195.14391535 -127.57328089 199.71994838 -131.796875 204.328125 C-132.67214844 205.28074219 -133.54742188 206.23335937 -134.44921875 207.21484375 C-136.23383926 209.18195177 -137.99546713 211.15708862 -139.73828125 213.16015625 C-140.60324219 214.14371094 -141.46820312 215.12726563 -142.359375 216.140625 C-143.11863281 217.01847656 -143.87789062 217.89632812 -144.66015625 218.80078125 C-148.61849717 222.5777252 -152.55520613 224.50682425 -158.046875 224.515625 C-158.85125 224.53496094 -159.655625 224.55429687 -160.484375 224.57421875 C-166.69596982 223.37166914 -171.22632836 218.18417276 -175.51171875 213.84375 C-176.10811661 213.24689392 -176.70451447 212.65003784 -177.31898499 212.03509521 C-178.57433022 210.77674315 -179.82725863 209.51597585 -181.07788086 208.25292969 C-182.97007386 206.34256349 -184.8700623 204.44023843 -186.77148438 202.5390625 C-187.99786663 201.30776041 -189.22379283 200.07600387 -190.44921875 198.84375 C-191.00673325 198.28512268 -191.56424774 197.72649536 -192.13865662 197.15093994 C-195.03065248 194.22481983 -197.8050862 191.23809196 -200.49438477 188.12402344 C-203.98706917 184.09269095 -207.68964163 180.32379881 -211.484375 176.578125 C-212.16814209 175.89814453 -212.85190918 175.21816406 -213.55639648 174.51757812 C-215.71744555 172.36861574 -217.88172226 170.22295221 -220.046875 168.078125 C-222.90403517 165.24778663 -225.75770954 162.41399827 -228.609375 159.578125 C-229.25124756 158.94455078 -229.89312012 158.31097656 -230.55444336 157.65820312 C-234.34907159 153.88387232 -237.94093941 149.99532843 -241.4181366 145.92608643 C-244.80647689 142.08168627 -248.5521191 138.57332112 -252.23632812 135.015625 C-252.82994141 134.43296875 -253.42355469 133.8503125 -254.03515625 133.25 C-254.56665283 132.7353418 -255.09814941 132.22068359 -255.64575195 131.69042969 C-258.49324891 128.41374909 -259.35498532 125.49744253 -259.421875 121.203125 C-259.45023438 120.38070312 -259.47859375 119.55828125 -259.5078125 118.7109375 C-258.32098142 111.93191928 -252.21482623 106.77330357 -247.671875 101.953125 C-247.02476562 101.25058594 -246.37765625 100.54804687 -245.7109375 99.82421875 C-237.21928265 90.76759493 -237.21928265 90.76759493 -231.1171875 89.44140625 C-230.14523437 89.42464844 -229.17328125 89.40789062 -228.171875 89.390625 C-226.72167969 89.32294922 -226.72167969 89.32294922 -225.2421875 89.25390625 C-215.96012615 91.6481788 -208.12613565 102.87037442 -201.453125 109.57421875 C-200.25408546 110.77512703 -199.05482223 111.975812 -197.85534668 113.17628479 C-194.72307292 116.31234785 -191.5938159 119.45140389 -188.46520996 122.59112549 C-185.2625023 125.80412501 -182.05690592 129.01423971 -178.8515625 132.22460938 C-172.58052711 138.50631871 -166.31267977 144.79119858 -160.046875 151.078125 C-156.98942466 149.61911958 -154.99000675 148.22453358 -152.68359375 145.7265625 C-152.05155029 145.04811279 -151.41950684 144.36966309 -150.76831055 143.6706543 C-150.09711182 142.93886963 -149.42591309 142.20708496 -148.734375 141.453125 C-147.29690723 139.90491799 -145.85940644 138.35674164 -144.421875 136.80859375 C-143.32939453 135.62595947 -143.32939453 135.62595947 -142.21484375 134.41943359 C-139.53316997 131.52334671 -136.82981309 128.64816611 -134.12451172 125.77416992 C-129.25062417 120.59495617 -124.4040274 115.39327404 -119.609375 110.140625 C-115.13617374 105.24076967 -110.60036356 100.40340024 -106.046875 95.578125 C-99.6514594 88.79955321 -93.3228798 81.96735775 -87.046875 75.078125 C-80.8865819 68.32317314 -74.68434683 61.61346078 -68.421875 54.953125 C-63.68757665 49.91775091 -59.00892535 44.84388066 -54.40625 39.6875 C-50.79275535 35.6911185 -47.10587397 31.76400954 -43.4230957 27.83154297 C-39.99563346 24.17058977 -36.58465959 20.4958295 -33.1953125 16.79956055 C-30.82284637 14.21608181 -28.43506337 11.64707872 -26.046875 9.078125 C-25.29535156 8.25957031 -24.54382813 7.44101562 -23.76953125 6.59765625 C-16.89559991 -0.64569943 -9.81055322 -4.41849344 0 0 Z " fill="#F8F8F8" transform="translate(784.046875,508.921875)"/>
<path d="M0 0 C-1.35053136 3.51351021 -2.88221076 6.84402307 -4.6171875 10.18359375 C-5.13506836 11.18140869 -5.65294922 12.17922363 -6.18652344 13.20727539 C-7.02231934 14.80623657 -7.02231934 14.80623657 -7.875 16.4375 C-8.45797852 17.55568115 -9.04095703 18.6738623 -9.64160156 19.82592773 C-13.74078856 27.66087895 -17.93545902 35.43839662 -22.19238281 43.18847656 C-27.49419906 52.85852087 -32.6711849 62.59447225 -37.82275391 72.34521484 C-38.53805783 73.69890808 -39.25338947 75.05258668 -39.96875 76.40625 C-40.31561859 77.062836 -40.66248718 77.719422 -41.01986694 78.39590454 C-43.09415001 82.31425503 -45.20305443 86.21111588 -47.34375 90.09375 C-47.82247559 90.97135986 -48.30120117 91.84896973 -48.79443359 92.75317383 C-49.65043098 94.31925639 -50.51713051 95.87956143 -51.39697266 97.43237305 C-53.45767929 101.14162198 -53.45767929 101.14162198 -53.8190918 105.27294922 C-52.75899132 108.80240445 -51.131573 111.9259002 -49.38671875 115.15234375 C-48.83856003 116.18390846 -48.83856003 116.18390846 -48.27932739 117.23631287 C-47.08834961 119.47346817 -45.88812192 121.70550787 -44.6875 123.9375 C-43.85785896 125.49080359 -43.02867893 127.04435349 -42.19995117 128.59814453 C-37.31974599 137.73515336 -32.39413026 146.84757244 -27.41113281 155.92895508 C-23.04123386 163.89507335 -18.75639209 171.90593282 -14.4786377 179.92175293 C-9.78832737 188.70893033 -5.03470816 197.45738011 -0.14819336 206.13720703 C0.27067139 206.88856934 0.68953613 207.63993164 1.12109375 208.4140625 C1.4864624 209.0632666 1.85183105 209.7124707 2.22827148 210.38134766 C3 212 3 212 3 214 C-0.6671005 214.03685014 -4.33280742 214.02375189 -8 214 C-8.67979919 213.99709961 -9.35959839 213.99419922 -10.05999756 213.99121094 C-14.77950999 213.95960794 -19.48421173 213.82176818 -24.19848633 213.59716797 C-25.86232458 213.53221381 -27.52753806 213.49623411 -29.19262695 213.48876953 C-42.50448057 213.40259176 -42.50448057 213.40259176 -46.42434692 209.62869263 C-49.08034121 205.87972764 -50.59481568 201.67585671 -52.1199646 197.37115479 C-53.64116564 193.27245248 -55.59129542 189.37630408 -57.47265625 185.43359375 C-58.2381757 183.77814555 -59.00052464 182.12122771 -59.75976562 180.46289062 C-60.13915283 179.6350708 -60.51854004 178.80725098 -60.90942383 177.9543457 C-61.28993896 177.12378662 -61.6704541 176.29322754 -62.0625 175.4375 C-63.21622877 172.9255565 -64.37071313 170.41396177 -65.52548218 167.90249634 C-66.27484246 166.27198624 -67.02341352 164.64111317 -67.77114868 163.00985718 C-69.53333344 159.16905927 -71.30812629 155.33531369 -73.11669922 151.51611328 C-73.4452037 150.82074966 -73.77370819 150.12538605 -74.11216736 149.40895081 C-74.72678338 148.11091943 -75.34457547 146.81438544 -75.96607971 145.51963806 C-78 141.22106996 -78 141.22106996 -78 139 C-78.66 139 -79.32 139 -80 139 C-80.10022461 139.68707031 -80.20044922 140.37414062 -80.30371094 141.08203125 C-81.14035061 144.58817339 -82.53572728 147.45816514 -84.140625 150.6875 C-84.45948166 151.33505249 -84.77833832 151.98260498 -85.1068573 152.64978027 C-85.7932578 154.04375542 -86.4819897 155.43658453 -87.17282104 156.82836914 C-93.79383769 170.1765728 -100.09447261 183.63822715 -106.10058594 197.2734375 C-106.60235352 198.41039062 -107.10412109 199.54734375 -107.62109375 200.71875 C-108.0586499 201.71841797 -108.49620605 202.71808594 -108.94702148 203.74804688 C-110 206 -110 206 -111 207 C-112.36406716 207.04117016 -113.73043465 207.01041888 -115.09375 206.94921875 C-115.95202393 206.91111084 -116.81029785 206.87300293 -117.69458008 206.83374023 C-118.62036865 206.78548096 -119.54615723 206.73722168 -120.5 206.6875 C-121.43803467 206.64117432 -122.37606934 206.59484863 -123.3425293 206.54711914 C-131.94778469 206.08081018 -140.46256844 205.15249731 -149 204 C-148.38014423 198.81444126 -145.99205019 194.52513571 -143.6953125 189.9140625 C-143.26027908 189.02877869 -142.82524567 188.14349487 -142.37702942 187.23138428 C-140.96483589 184.36002085 -139.54484111 181.49258829 -138.125 178.625 C-136.66863192 175.66713256 -135.21437796 172.70823175 -133.76017761 169.7492981 C-132.80594857 167.80810864 -131.85104764 165.86724932 -130.89546204 163.92672729 C-127.11164635 156.24130724 -123.37496915 148.53549546 -119.71630859 140.78955078 C-117.42015131 135.9338343 -115.06195933 131.11702384 -112.64453125 126.3203125 C-112.07935791 125.18416504 -111.51418457 124.04801758 -110.93188477 122.87744141 C-109.84137542 120.68755808 -108.73718123 118.50441552 -107.61694336 116.32958984 C-107.1297583 115.3442627 -106.64257324 114.35893555 -106.140625 113.34375 C-105.48368652 112.04727539 -105.48368652 112.04727539 -104.81347656 110.72460938 C-102.82845439 104.07609573 -105.92665792 98.41913479 -108.8671875 92.59375 C-109.25773819 91.80026154 -109.64828888 91.00677307 -110.05067444 90.1892395 C-111.31663639 87.62169394 -112.59582156 85.06098249 -113.875 82.5 C-114.75312446 80.72368293 -115.63015402 78.9468242 -116.50610352 77.16943359 C-118.228299 73.6760036 -119.95425206 70.18447533 -121.68310547 66.69433594 C-124.48518567 61.02840766 -127.22497595 55.33437542 -129.9375 49.625 C-130.76680185 47.88275288 -131.59622791 46.14056489 -132.42578125 44.3984375 C-132.83393066 43.54088867 -133.24208008 42.68333984 -133.66259766 41.79980469 C-135.19858694 38.58426524 -136.7451498 35.37392399 -138.29296875 32.1640625 C-138.84799072 31.01212402 -139.4030127 29.86018555 -139.97485352 28.67333984 C-141.05079231 26.44123247 -142.12804089 24.20975584 -143.20678711 21.97900391 C-143.92813843 20.48119385 -143.92813843 20.48119385 -144.6640625 18.953125 C-145.09154785 18.06786133 -145.5190332 17.18259766 -145.95947266 16.27050781 C-147 14 -147 14 -148 11 C-144.12295361 10.13293907 -140.34069573 9.73532514 -136.37890625 9.46484375 C-135.11369141 9.37783203 -133.84847656 9.29082031 -132.54492188 9.20117188 C-131.23072266 9.11416016 -129.91652344 9.02714844 -128.5625 8.9375 C-126.59700195 8.80118164 -126.59700195 8.80118164 -124.59179688 8.66210938 C-119.04860746 8.28692149 -113.55811436 7.9457822 -108 8 C-102.96391533 17.75094495 -98.49012968 27.71278423 -94.0625 37.75 C-93.37850799 39.29438281 -92.69426421 40.83865414 -92.00976562 42.3828125 C-87.64291084 52.24196383 -83.31403686 62.11763969 -79 72 C-76.64332147 69.05004988 -74.9491961 66.08997842 -73.3203125 62.6875 C-72.80984375 61.62523193 -72.299375 60.56296387 -71.7734375 59.46850586 C-71.22945313 58.32389893 -70.68546875 57.17929199 -70.125 56 C-69.27421875 54.2221814 -69.27421875 54.2221814 -68.40625 52.40844727 C-63.65662505 42.46617217 -59.00903013 32.47623011 -54.40283203 22.46679688 C-53.40648159 20.30533098 -52.39337152 18.1514887 -51.36132812 16.00683594 C-49.95385666 13.05383044 -49.95385666 13.05383044 -49.06054688 10.04785156 C-48.01392454 7.09933672 -47.19338549 5.24300051 -45 3 C-39.89116328 1.30346139 -34.82722072 1.09366355 -29.5 0.875 C-28.09085173 0.78032184 -26.68198207 0.68139648 -25.2734375 0.578125 C-16.85425208 0.00121678 -8.43744011 -0.11465891 0 0 Z " fill="#F8F9F8" transform="translate(445,387)"/>
<path d="M0 0 C0.33 0 0.66 0 1 0 C1.07019159 14.7255514 1.12303777 29.45108054 1.15543652 44.17676544 C1.17088205 51.01471054 1.19192704 57.85255147 1.22631836 64.69042969 C1.25950035 71.29102846 1.27686054 77.89154758 1.28463173 84.49223328 C1.29016892 87.00878094 1.30098168 89.52532278 1.31719017 92.04182434 C1.33901021 95.57033006 1.34196493 99.09839064 1.34057617 102.62695312 C1.351362 103.66417511 1.36214783 104.70139709 1.3732605 105.77005005 C1.34451579 112.5325329 0.81739213 118.69317227 -3.75390625 124.05859375 C-4.35074219 124.51363281 -4.94757813 124.96867188 -5.5625 125.4375 C-6.16191406 125.91058594 -6.76132812 126.38367188 -7.37890625 126.87109375 C-10.17859688 128.82075783 -11.8952787 129.12423726 -15.26467896 129.12025452 C-16.15932861 129.12162918 -17.05397827 129.12300385 -17.97573853 129.12442017 C-18.95972626 129.12082489 -19.94371399 129.11722961 -20.95751953 129.11352539 C-21.99169006 129.11367142 -23.0258606 129.11381744 -24.09136963 129.1139679 C-27.52187166 129.11326924 -30.95231991 129.10547901 -34.3828125 129.09765625 C-36.75649994 129.0957919 -39.13018777 129.09436808 -41.50387573 129.09336853 C-47.76089535 129.08954466 -54.01789187 129.07971547 -60.27490234 129.06866455 C-66.6559213 129.05844764 -73.03694398 129.05387031 -79.41796875 129.04882812 C-91.94532237 129.0380931 -104.47265996 129.02120961 -117 129 C-112.65767219 121.29463508 -112.65767219 121.29463508 -109.734375 118.078125 C-109.12916016 117.40845703 -108.52394531 116.73878906 -107.90039062 116.04882812 C-106.95969727 115.0346582 -106.95969727 115.0346582 -106 114 C-105.06704102 112.99356445 -105.06704102 112.99356445 -104.11523438 111.96679688 C-102.16929894 109.88569943 -100.21143466 107.8164902 -98.25 105.75 C-92.73031912 99.9112551 -87.26178815 94.03441928 -81.84765625 88.09765625 C-78.39229688 84.32353219 -74.88077966 80.60221553 -71.375 76.875 C-67.39397735 72.64152707 -63.4286355 68.40173813 -59.5625 64.0625 C-54.81316379 58.73857491 -49.90415851 53.56812822 -45.00634766 48.38134766 C-40.23645811 43.32595619 -35.52400026 38.2248063 -30.83984375 33.08984375 C-26.79410614 28.67114654 -22.67852027 24.31751008 -18.57519531 19.95239258 C-13.69869087 14.75935411 -8.87291706 9.52275205 -4.07421875 4.2578125 C-2.74526966 2.81123514 -1.38900895 1.38900895 0 0 Z " fill="#236F43" transform="translate(779,576)"/>
<path d="M0 0 C30.03 0 60.06 0 91 0 C91 18.81 91 37.62 91 57 C60.97 57 30.94 57 0 57 C0 38.19 0 19.38 0 0 Z " fill="#287A4A" transform="translate(641,413)"/>
<path d="M0 0 C29.7 0 59.4 0 90 0 C90 18.81 90 37.62 90 57 C59.97 57 29.94 57 -1 57 C-1.020625 48.70875 -1.04125 40.4175 -1.0625 31.875 C-1.071604 29.26706543 -1.08070801 26.65913086 -1.09008789 23.97216797 C-1.09300965 21.89550834 -1.0955576 19.81884813 -1.09765625 17.7421875 C-1.10277222 16.67170166 -1.10788818 15.60121582 -1.11315918 14.49829102 C-1.11328003 13.46357666 -1.11340088 12.4288623 -1.11352539 11.36279297 C-1.115746 10.47010712 -1.11796661 9.57742126 -1.12025452 8.65768433 C-1 6 -1 6 0 0 Z " fill="#277949" transform="translate(642,338)"/>
<path d="M0 0 C0.82585915 0.00291284 1.65171829 0.00582568 2.50260347 0.00882679 C3.37325455 0.00797237 4.24390563 0.00711794 5.14094007 0.00623763 C8.08141547 0.00458015 11.0218348 0.01010855 13.96230501 0.01555592 C16.06094798 0.01583776 18.15959105 0.01568012 20.25823396 0.01511341 C25.97494314 0.01482531 31.69163154 0.02072403 37.40833586 0.02768737 C43.3754568 0.03391886 49.34257817 0.03452454 55.30970186 0.03571278 C66.61799154 0.0388267 77.9262716 0.0470409 89.23455703 0.05706227 C102.10495076 0.06822152 114.97534493 0.07373338 127.84574229 0.0787577 C154.32918194 0.08922347 180.81261306 0.10682408 207.29604524 0.12908131 C207.29604524 0.45908131 207.29604524 0.78908131 207.29604524 1.12908131 C137.33604524 1.12908131 67.37604524 1.12908131 -4.70395476 1.12908131 C-4.70395476 10.03908131 -4.70395476 18.94908131 -4.70395476 28.12908131 C23.67604524 28.12908131 52.05604524 28.12908131 81.29604524 28.12908131 C81.29604524 46.93908131 81.29604524 65.74908131 81.29604524 85.12908131 C52.91604524 85.12908131 24.53604524 85.12908131 -4.70395476 85.12908131 C-4.70395476 91.06908131 -4.70395476 97.00908131 -4.70395476 103.12908131 C23.67604524 103.12908131 52.05604524 103.12908131 81.29604524 103.12908131 C81.29604524 121.93908131 81.29604524 140.74908131 81.29604524 160.12908131 C64.79604524 160.12908131 48.29604524 160.12908131 31.29604524 160.12908131 C31.29604524 159.79908131 31.29604524 159.46908131 31.29604524 159.12908131 C47.46604524 159.12908131 63.63604524 159.12908131 80.29604524 159.12908131 C80.29604524 141.30908131 80.29604524 123.48908131 80.29604524 105.12908131 C71.00126009 105.14648365 71.00126009 105.14648365 61.51870149 105.16423756 C57.60398691 105.16934427 53.68927641 105.17415804 49.77456087 105.17790943 C43.55458154 105.18389805 37.33461687 105.19099883 31.11464876 105.20452076 C26.10262256 105.21534907 21.09061206 105.22135802 16.07857507 105.22395855 C14.16192242 105.2258129 12.24527067 105.22943371 10.32862467 105.23481137 C7.65376452 105.24202105 4.97897011 105.24307228 2.30410188 105.2426067 C1.50353365 105.24620198 0.70296541 105.24979725 -0.12186247 105.25350147 C-5.58990259 105.24313347 -5.58990259 105.24313347 -6.70395476 104.12908131 C-6.80276273 102.65255467 -6.83474721 101.17140895 -6.83676726 99.69158131 C-6.83805632 98.79697193 -6.83934538 97.90236256 -6.84067351 96.98064381 C-6.83487273 95.56912037 -6.83487273 95.56912037 -6.82895476 94.12908131 C-6.83282194 93.18806568 -6.83668913 92.24705006 -6.84067351 91.27751881 C-6.83938444 90.38290943 -6.83809538 89.48830006 -6.83676726 88.56658131 C-6.83507536 87.32714772 -6.83507536 87.32714772 -6.83334929 86.06267506 C-6.70395476 84.12908131 -6.70395476 84.12908131 -5.70395476 83.12908131 C-3.02607502 83.03395187 -0.37406607 83.00352852 2.30410188 83.01555592 C3.14305498 83.01540989 3.98200807 83.01526386 4.84638399 83.01511341 C7.63301569 83.01581281 10.4195814 83.02360646 13.20620149 83.03142506 C15.13291316 83.03328914 17.0596253 83.03471309 18.9863376 83.03571278 C24.06791922 83.03953872 29.14947244 83.04936965 34.2310428 83.06041676 C40.32248021 83.07242346 46.41392709 83.07703276 52.50537294 83.08287007 C61.76895015 83.09258137 71.03246501 83.11173739 80.29604524 83.12908131 C80.29604524 65.63908131 80.29604524 48.14908131 80.29604524 30.12908131 C71.00126009 30.14648365 71.00126009 30.14648365 61.51870149 30.16423756 C57.60398691 30.16934427 53.68927641 30.17415804 49.77456087 30.17790943 C43.55458154 30.18389805 37.33461687 30.19099883 31.11464876 30.20452076 C26.10262256 30.21534907 21.09061206 30.22135802 16.07857507 30.22395855 C14.16192242 30.2258129 12.24527067 30.22943371 10.32862467 30.23481137 C7.65376452 30.24202105 4.97897011 30.24307228 2.30410188 30.2426067 C1.50353365 30.24620198 0.70296541 30.24979725 -0.12186247 30.25350147 C-5.58990259 30.24313347 -5.58990259 30.24313347 -6.70395476 29.12908131 C-6.80389007 27.06852821 -6.83476381 25.00455541 -6.83676726 22.94158131 C-6.83805632 21.68603443 -6.83934538 20.43048756 -6.84067351 19.13689381 C-6.83857878 18.4797942 -6.83648405 17.82269459 -6.83432585 17.14568287 C-6.82897709 15.13746796 -6.83427167 13.12947672 -6.84067351 11.12126881 C-6.83938444 9.86572193 -6.83809538 8.61017506 -6.83676726 7.31658131 C-6.83507536 5.57441334 -6.83507536 5.57441334 -6.83334929 3.79705006 C-6.59829499 -1.04950344 -4.2820969 0.0114602 0 0 Z " fill="#115F2E" transform="translate(541.7039547562599,309.8709186911583)"/>
<path d="M0 0 C0.124032 5.01699904 0.21454017 10.03309682 0.2746582 15.05126953 C0.29973045 16.75650589 0.33379764 18.46163554 0.37719727 20.16650391 C0.43817566 22.62429174 0.46628112 25.08065361 0.48828125 27.5390625 C0.51408768 28.29555084 0.5398941 29.05203918 0.56648254 29.83145142 C0.56857614 33.82452066 0.17737985 36.28720651 -2.34301758 39.46630859 C-6.48145011 43.4127069 -10.0988577 43.13720787 -15.51171875 43.09765625 C-16.23994339 43.0962413 -16.96816803 43.09482635 -17.71846008 43.09336853 C-20.04151539 43.08777659 -22.36447388 43.07522562 -24.6875 43.0625 C-26.26367048 43.05748396 -27.83984248 43.05292123 -29.41601562 43.04882812 C-33.27738098 43.0378098 -37.13867408 43.02055074 -41 43 C-40.40795776 42.30946533 -40.40795776 42.30946533 -39.80395508 41.60498047 C-39.01347778 40.68289795 -39.01347778 40.68289795 -38.20703125 39.7421875 C-37.65740723 39.10120117 -37.1077832 38.46021484 -36.54150391 37.79980469 C-35.42499266 36.49620619 -34.31125077 35.19023409 -33.19921875 33.8828125 C-29.38478347 29.44742264 -25.34318924 25.31836515 -21.1796875 21.2109375 C-19.23766452 19.24107189 -17.41938329 17.22846367 -15.625 15.125 C-12.60052982 11.60120691 -9.40059784 8.28824901 -6.125 5 C-5.39144287 4.25967529 -5.39144287 4.25967529 -4.64306641 3.50439453 C-1.12378595 0 -1.12378595 0 0 0 Z " fill="#F9FAFA" transform="translate(758,642)"/>
<path d="M0 0 C9.9 0 19.8 0 30 0 C30 0.33 30 0.66 30 1 C20.43 1 10.86 1 1 1 C1 7.27 1 13.54 1 20 C29.38 20 57.76 20 87 20 C87 38.48 87 56.96 87 76 C58.62 76 30.24 76 1 76 C1 81.94 1 87.88 1 94 C29.38 94 57.76 94 87 94 C87 112.15 87 130.3 87 149 C86.67 149 86.34 149 86 149 C86 131.18 86 113.36 86 95 C80.06 95.495 80.06 95.495 74 96 C71.28773528 96.08112142 68.57407276 96.12771443 65.8605957 96.12939453 C65.13868546 96.13114685 64.41677521 96.13289917 63.67298889 96.13470459 C61.34056026 96.13902632 59.00821033 96.13622352 56.67578125 96.1328125 C55.03622931 96.13348752 53.39667746 96.13445919 51.75712585 96.13571167 C48.34922314 96.13717476 44.94134688 96.1350761 41.53344727 96.13037109 C37.15747425 96.12462444 32.7815619 96.12799239 28.40559101 96.13394356 C25.03341711 96.13754441 21.6612578 96.13641366 18.28908348 96.13381577 C16.67387065 96.13314774 15.0586565 96.13397058 13.44344521 96.13629532 C11.20094866 96.13881937 8.9585534 96.13498713 6.71606445 96.12939453 C5.43987747 96.12859894 4.16369049 96.12780334 2.84883118 96.12698364 C0 96 0 96 -1 95 C-1.09860131 93.59651265 -1.13078937 92.18819523 -1.1328125 90.78125 C-1.13410156 89.93175781 -1.13539063 89.08226562 -1.13671875 88.20703125 C-1.13285156 87.31371094 -1.12898437 86.42039062 -1.125 85.5 C-1.12886719 84.60667969 -1.13273438 83.71335937 -1.13671875 82.79296875 C-1.13542969 81.94347656 -1.13414062 81.09398437 -1.1328125 80.21875 C-1.13168457 79.43435547 -1.13055664 78.64996094 -1.12939453 77.84179688 C-1 76 -1 76 0 75 C2.67787973 74.90487056 5.32988869 74.87444721 8.00805664 74.88647461 C8.84700974 74.88632858 9.68596283 74.88618256 10.55033875 74.8860321 C13.33697044 74.8867315 16.12353616 74.89452515 18.91015625 74.90234375 C20.83686791 74.90420783 22.76358005 74.90563178 24.69029236 74.90663147 C29.77187397 74.91045741 34.8534272 74.92028834 39.93499756 74.93133545 C46.02643497 74.94334215 52.11788185 74.94795145 58.2093277 74.95378876 C67.4729049 74.96350006 76.73641976 74.98265608 86 75 C86 57.18 86 39.36 86 21 C76.70521484 21.01740234 76.70521484 21.01740234 67.22265625 21.03515625 C63.30794167 21.04026296 59.39323117 21.04507673 55.47851562 21.04882812 C49.2585363 21.05481674 43.03857162 21.06191752 36.81860352 21.07543945 C31.80657732 21.08626776 26.79456682 21.09227671 21.78252983 21.09487724 C19.86587718 21.09673159 17.94922543 21.1003524 16.03257942 21.10573006 C13.35771928 21.11293975 10.68292486 21.11399097 8.00805664 21.11352539 C7.2074884 21.11712067 6.40692017 21.12071594 5.58209229 21.12442017 C0.11405216 21.11405216 0.11405216 21.11405216 -1 20 C-1.10011296 17.01133358 -1.13873975 14.05089547 -1.125 11.0625 C-1.12886719 10.22525391 -1.13273438 9.38800781 -1.13671875 8.52539062 C-1.13542969 7.72423828 -1.13414062 6.92308594 -1.1328125 6.09765625 C-1.13168457 5.36039307 -1.13055664 4.62312988 -1.12939453 3.86352539 C-1 2 -1 2 0 0 Z " fill="#034D18" transform="translate(536,468)"/>
<path d="M0 0 C29.7 0 59.4 0 90 0 C90 0.33 90 0.66 90 1 C60.63 1 31.26 1 1 1 C1.33 4.63 1.66 8.26 2 12 C2.07625966 15.4287329 2.1181782 18.83459269 2.09765625 22.26171875 C2.09553383 23.63672295 2.09553383 23.63672295 2.09336853 25.039505 C2.08784131 27.92220546 2.07530331 30.80482365 2.0625 33.6875 C2.05747557 35.66080616 2.05291433 37.63411355 2.04882812 39.60742188 C2.03789588 44.40497885 2.0206831 49.20247556 2 54 C3.04347595 53.99333817 4.0869519 53.98667633 5.16204834 53.97981262 C14.9911536 53.9190232 24.82022076 53.87403778 34.64947128 53.84456348 C39.70291726 53.82890109 44.75621161 53.80765226 49.80957031 53.77368164 C54.68546288 53.74110878 59.56120949 53.72315131 64.43720245 53.71536827 C66.29836576 53.70982104 68.159521 53.69898877 70.02062225 53.68280983 C72.62557803 53.66106307 75.22992913 53.65803191 77.83496094 53.65942383 C78.60604187 53.648638 79.3771228 53.63785217 80.17156982 53.6267395 C84.89116195 53.65406493 86.0189107 54.01418303 90 57 C59.97 57 29.94 57 -1 57 C-1.020625 48.70875 -1.04125 40.4175 -1.0625 31.875 C-1.071604 29.26706543 -1.08070801 26.65913086 -1.09008789 23.97216797 C-1.09300965 21.89550834 -1.0955576 19.81884813 -1.09765625 17.7421875 C-1.10277222 16.67170166 -1.10788818 15.60121582 -1.11315918 14.49829102 C-1.11328003 13.46357666 -1.11340088 12.4288623 -1.11352539 11.36279297 C-1.115746 10.47010712 -1.11796661 9.57742126 -1.12025452 8.65768433 C-1 6 -1 6 0 0 Z " fill="#377F55" transform="translate(642,338)"/>
<path d="M0 0 C30.03 0 60.06 0 91 0 C91 18.81 91 37.62 91 57 C60.97 57 30.94 57 0 57 C0 38.19 0 19.38 0 0 Z M2 2 C2 19.82 2 37.64 2 56 C31.04 56 60.08 56 90 56 C90 37.85 90 19.7 90 1 C60.65053479 0.85957194 31.34625671 1.4231694 2 2 Z " fill="#146834" transform="translate(641,413)"/>
<path d="M0 0 C0.66 0 1.32 0 2 0 C2 5.94 2 11.88 2 18 C30.38 18 58.76 18 88 18 C88 36.15 88 54.3 88 73 C87.67 73 87.34 73 87 73 C87 55.18 87 37.36 87 19 C83.04 19.33 79.08 19.66 75 20 C72.28773528 20.08112142 69.57407276 20.12771443 66.8605957 20.12939453 C66.13868546 20.13114685 65.41677521 20.13289917 64.67298889 20.13470459 C62.34056026 20.13902632 60.00821033 20.13622352 57.67578125 20.1328125 C56.03622931 20.13348752 54.39667746 20.13445919 52.75712585 20.13571167 C49.34922314 20.13717476 45.94134688 20.1350761 42.53344727 20.13037109 C38.15747425 20.12462444 33.7815619 20.12799239 29.40559101 20.13394356 C26.03341711 20.13754441 22.6612578 20.13641366 19.28908348 20.13381577 C17.67387065 20.13314774 16.0586565 20.13397058 14.44344521 20.13629532 C12.20094866 20.13881937 9.9585534 20.13498713 7.71606445 20.12939453 C6.43987747 20.12859894 5.16369049 20.12780334 3.84883118 20.12698364 C1 20 1 20 0 19 C-0.08651611 17.58429877 -0.10704904 16.164405 -0.09765625 14.74609375 C-0.09443359 13.89208984 -0.09121094 13.03808594 -0.08789062 12.15820312 C-0.07951172 11.26037109 -0.07113281 10.36253906 -0.0625 9.4375 C-0.05798828 8.53580078 -0.05347656 7.63410156 -0.04882812 6.70507812 C-0.03700225 4.46998686 -0.0205222 2.23502563 0 0 Z " fill="#115E2E" transform="translate(535,544)"/>
<path d="M0 0 C2 2 2 2 2.125 4.625 C2.08375 5.40875 2.0425 6.1925 2 7 C3.98 7 5.96 7 8 7 C8 7.33 8 7.66 8 8 C46.115 8.495 46.115 8.495 85 9 C85 9.33 85 9.66 85 10 C56.62 10 28.24 10 -1 10 C-0.67 6.7 -0.34 3.4 0 0 Z " fill="#E9EDEA" transform="translate(538,478)"/>
<path d="M0 0 C4.62 0 9.24 0 14 0 C13.67 0.99 13.34 1.98 13 3 C8.71 3 4.42 3 0 3 C0 2.01 0 1.02 0 0 Z " fill="#EFEDEE" transform="translate(538,544)"/>
<path d="M0 0 C0 4.13781054 -1.71509607 5.20919996 -4.5 8.1875 C-5.3353125 9.08855469 -6.170625 9.98960937 -7.03125 10.91796875 C-7.6809375 11.60503906 -8.330625 12.29210937 -9 13 C-9.66 12.67 -10.32 12.34 -11 12 C-3.70159453 3.55353075 -3.70159453 3.55353075 0 0 Z " fill="#15542B" transform="translate(741,617)"/>
<path d="M0 0 C0 6.27 0 12.54 0 19 C-0.33 19 -0.66 19 -1 19 C-1 14.05 -1 9.1 -1 4 C-1.99 3.67 -2.98 3.34 -4 3 C-1.125 0 -1.125 0 0 0 Z " fill="#1B6C3D" transform="translate(779,579)"/>
<path d="M0 0 C0.66 0 1.32 0 2 0 C2 3.3 2 6.6 2 10 C-1 7 -1 7 -1.25 3.875 C-1 1 -1 1 0 0 Z " fill="#393F42" transform="translate(119,729)"/>
</svg>
